# xmcd
#
# Track frame offsets: 
#        150
#        27459
#        55266
#        70390
#        84157
#        98283
#        112839
#        126908
#        141534
#        154823
#        169963
#        184717
#        196301
#        210311
#        225426
#        238186
#        255984
#        271903
#        288081
#        303289
#
# Disc length: 4350 seconds
#
# Revision: 0
# Processed by: cddbd v1.5.2PL0 Copyright (c) Steve Scherf et al.
# Submitted via: ExactAudioCopyFreeDBPlugin 1.0
#
DISCID=0b10fc14
DTITLE=Johnny Hodges - BD Jazz [CD1 - The Independance Days 1951-19
DTITLE=53)
DYEAR=2007
DGENRE=Blues
TTITLE0=Sweet Georgia Brown
TTITLE1=Duke's Blues
TTITLE2=Tenderly
TTITLE3=Tea For Two
TTITLE4=Who's Excited
TTITLE5=Sophisticated Lady
TTITLE6=Sideways
TTITLE7=A Pound Of Blues
TTITLE8=Solitude
TTITLE9=Through For The Night
TTITLE10=The Sheik Of Araby
TTITLE11=Come Sunday
TTITLE12=Below The Azores
TTITLE13=Day Dream
TTITLE14=Standing Room Only
TTITLE15=Indinia
TTITLE16=I Got It Bad And That Ain't Good
TTITLE17=You Blew Out The Flame In My Heart
TTITLE18=Sweeping The Blues Away
TTITLE19=Funky Blues
EXTD=
EXTT0=
EXTT1=
EXTT2=
EXTT3=
EXTT4=
EXTT5=
EXTT6=
EXTT7=
EXTT8=
EXTT9=
EXTT10=
EXTT11=
EXTT12=
EXTT13=
EXTT14=
EXTT15=
EXTT16=
EXTT17=
EXTT18=
EXTT19=
PLAYORDER=
